# xmcd CD database file
#
# Track frame offsets:
#	150
#	9282
#	50022
#	88342
#	121895
#	167075
#	194670
#	219322
#	246537
#	279747
#
# Disc length: 4058 seconds
#
# Revision: 0
# Processed by: cddbd v1.5.2PL0 Copyright (c) Steve Scherf et al.
# Submitted via: CDex 1.51
#
DISCID=940fd80a
DTITLE=Thomas Jaderlund Amazing Orchestra - Thomas Jaderlund Amazing Orchestra Disk2
DYEAR=1997
DGENRE=Jazz
TTITLE0=Amazing Trumpet
TTITLE1=Post Past
TTITLE2=Miao
TTITLE3=Range-Strange
TTITLE4=Today
TTITLE5=Till Arboga
TTITLE6=Bandoneons, Basil and Bay Leaves
TTITLE7=Kommer efter som...
TTITLE8=Sea Jam Blues
TTITLE9=Stilla Natt
EXTD=YEAR: 1997
EXTT0=
EXTT1=
EXTT2=
EXTT3=
EXTT4=
EXTT5=
EXTT6=
EXTT7=
EXTT8=
EXTT9=
PLAYORDER=
